<mxfile host="65bd71144e" pages="4">
    <diagram name="Seite-1" id="6Fpc--FPsNFPoDzu7f7K">
        <mxGraphModel dx="1482" dy="676" grid="1" gridSize="10" guides="1" tooltips="1" connect="1" arrows="1" fold="1" page="1" pageScale="1" pageWidth="850" pageHeight="1100" math="0" shadow="0">
            <root>
                <mxCell id="0"/>
                <mxCell id="1" style="locked=1;" parent="0"/>
                <mxCell id="S5Bi1np_sZsKetwt9-qd-5" value="" style="rounded=0;whiteSpace=wrap;html=1;" parent="1" vertex="1">
                    <mxGeometry width="850" height="500" as="geometry"/>
                </mxCell>
                <mxCell id="S5Bi1np_sZsKetwt9-qd-19" value="Unbenannte Ebene" style="locked=1;" parent="0"/>
                <mxCell id="S5Bi1np_sZsKetwt9-qd-6" value="SideMenus" parent="0"/>
                <mxCell id="S5Bi1np_sZsKetwt9-qd-7" value="" style="rounded=0;whiteSpace=wrap;html=1;fillColor=#cdeb8b;strokeColor=#36393d;" parent="S5Bi1np_sZsKetwt9-qd-6" vertex="1">
                    <mxGeometry width="850" height="30" as="geometry"/>
                </mxCell>
                <mxCell id="S5Bi1np_sZsKetwt9-qd-8" value="" style="shape=image;html=1;verticalAlign=top;verticalLabelPosition=bottom;labelBackgroundColor=#ffffff;imageAspect=0;aspect=fixed;image=https://cdn4.iconfinder.com/data/icons/evil-icons-user-interface/64/menu-128.png" parent="S5Bi1np_sZsKetwt9-qd-6" vertex="1">
                    <mxGeometry x="1" width="30" height="30" as="geometry"/>
                </mxCell>
                <mxCell id="S5Bi1np_sZsKetwt9-qd-16" value="" style="html=1;shadow=0;dashed=0;shape=mxgraph.bootstrap.rrect;rSize=5;strokeColor=#DFDFDF;html=1;whiteSpace=wrap;fillColor=#FFFFFF;fontColor=#000000;" parent="S5Bi1np_sZsKetwt9-qd-6" vertex="1">
                    <mxGeometry x="150" y="30" width="700" height="470" as="geometry"/>
                </mxCell>
                <mxCell id="S5Bi1np_sZsKetwt9-qd-17" value="" style="html=1;shadow=0;dashed=0;shape=mxgraph.bootstrap.topButton;strokeColor=inherit;fillColor=#F7F7F7;rSize=5;perimeter=none;whiteSpace=wrap;resizeWidth=1;align=left;spacing=20;fontSize=14;" parent="S5Bi1np_sZsKetwt9-qd-16" vertex="1">
                    <mxGeometry width="700" height="20" relative="1" as="geometry"/>
                </mxCell>
                <mxCell id="S5Bi1np_sZsKetwt9-qd-18" value="Lorem ipsum dolor sit amet, consectetur adipiscing elit. Integer posuere erat a ante.&lt;font style=&quot;font-size: 14px&quot; color=&quot;#999999&quot;&gt;&lt;br&gt;&lt;br&gt;- &lt;b&gt;Someone famous&lt;/b&gt; in &lt;i&gt;Source Title&lt;/i&gt;&lt;/font&gt;" style="perimeter=none;html=1;whiteSpace=wrap;fillColor=none;strokeColor=none;resizeWidth=1;verticalAlign=top;align=left;spacing=20;spacingTop=-10;fontSize=14;" parent="S5Bi1np_sZsKetwt9-qd-16" vertex="1">
                    <mxGeometry width="700" height="80" relative="1" as="geometry">
                        <mxPoint y="40" as="offset"/>
                    </mxGeometry>
                </mxCell>
                <mxCell id="S5Bi1np_sZsKetwt9-qd-26" value="" style="html=1;shadow=0;dashed=0;shape=mxgraph.bootstrap.rrect;rSize=5;strokeColor=#FFFFFF;html=1;whiteSpace=wrap;fillColor=#eeeeee;sketch=0;" parent="S5Bi1np_sZsKetwt9-qd-16" vertex="1">
                    <mxGeometry y="20" width="30" height="450" as="geometry"/>
                </mxCell>
                <mxCell id="S5Bi1np_sZsKetwt9-qd-27" value="1" style="strokeColor=inherit;fillColor=inherit;gradientColor=inherit;fontColor=inherit;html=1;shadow=0;dashed=0;shape=mxgraph.bootstrap.topButton;rSize=5;perimeter=none;whiteSpace=wrap;resizeWidth=1;sketch=0;" parent="S5Bi1np_sZsKetwt9-qd-26" vertex="1">
                    <mxGeometry width="30" height="30" relative="1" as="geometry"/>
                </mxCell>
                <mxCell id="S5Bi1np_sZsKetwt9-qd-28" value="2" style="strokeColor=inherit;fillColor=inherit;gradientColor=inherit;fontColor=inherit;html=1;shadow=0;dashed=0;perimeter=none;whiteSpace=wrap;resizeWidth=1;sketch=0;" parent="S5Bi1np_sZsKetwt9-qd-26" vertex="1">
                    <mxGeometry width="30" height="30" relative="1" as="geometry">
                        <mxPoint y="30" as="offset"/>
                    </mxGeometry>
                </mxCell>
                <mxCell id="S5Bi1np_sZsKetwt9-qd-29" value="3" style="strokeColor=inherit;fillColor=inherit;gradientColor=inherit;fontColor=inherit;html=1;shadow=0;dashed=0;perimeter=none;whiteSpace=wrap;resizeWidth=1;sketch=0;" parent="S5Bi1np_sZsKetwt9-qd-26" vertex="1">
                    <mxGeometry width="30" height="30" relative="1" as="geometry">
                        <mxPoint y="60" as="offset"/>
                    </mxGeometry>
                </mxCell>
                <mxCell id="S5Bi1np_sZsKetwt9-qd-30" value="4" style="strokeColor=inherit;fillColor=inherit;gradientColor=inherit;fontColor=inherit;html=1;shadow=0;dashed=0;perimeter=none;whiteSpace=wrap;resizeWidth=1;sketch=0;" parent="S5Bi1np_sZsKetwt9-qd-26" vertex="1">
                    <mxGeometry width="30" height="30" relative="1" as="geometry">
                        <mxPoint y="90" as="offset"/>
                    </mxGeometry>
                </mxCell>
                <mxCell id="S5Bi1np_sZsKetwt9-qd-31" value="5" style="strokeColor=inherit;fillColor=inherit;gradientColor=inherit;fontColor=inherit;html=1;shadow=0;dashed=0;perimeter=none;whiteSpace=wrap;resizeWidth=1;sketch=0;" parent="S5Bi1np_sZsKetwt9-qd-26" vertex="1">
                    <mxGeometry width="30" height="30" relative="1" as="geometry">
                        <mxPoint y="120" as="offset"/>
                    </mxGeometry>
                </mxCell>
                <mxCell id="S5Bi1np_sZsKetwt9-qd-32" value="" style="strokeColor=inherit;fillColor=inherit;gradientColor=inherit;fontColor=inherit;html=1;shadow=0;dashed=0;shape=mxgraph.bootstrap.bottomButton;rSize=5;perimeter=none;whiteSpace=wrap;resizeWidth=1;resizeHeight=0;sketch=0;" parent="S5Bi1np_sZsKetwt9-qd-26" vertex="1">
                    <mxGeometry y="1" width="30" height="30" relative="1" as="geometry">
                        <mxPoint y="-30" as="offset"/>
                    </mxGeometry>
                </mxCell>
                <mxCell id="S5Bi1np_sZsKetwt9-qd-69" value="Config changed to prod and cannot be modified anymore. Do you want to proceed in a new config for testing?&amp;nbsp;" style="strokeWidth=1;shadow=0;dashed=0;align=center;html=1;shape=mxgraph.mockup.containers.rrect;rSize=0;strokeColor=#d79b00;fontSize=10;verticalAlign=top;whiteSpace=wrap;fillColor=#ffe6cc;spacingTop=32;" parent="S5Bi1np_sZsKetwt9-qd-16" vertex="1">
                    <mxGeometry x="140" y="140" width="310" height="110" as="geometry"/>
                </mxCell>
                <mxCell id="S5Bi1np_sZsKetwt9-qd-70" value="Config changed to Prod" style="strokeWidth=1;shadow=0;dashed=0;align=center;html=1;shape=mxgraph.mockup.containers.rrect;rSize=0;fontSize=10;strokeColor=#d79b00;align=left;spacingLeft=8;fillColor=#ffe6cc;resizeWidth=1;whiteSpace=wrap;" parent="S5Bi1np_sZsKetwt9-qd-69" vertex="1">
                    <mxGeometry width="310" height="30" relative="1" as="geometry">
                        <mxPoint as="offset"/>
                    </mxGeometry>
                </mxCell>
                <mxCell id="S5Bi1np_sZsKetwt9-qd-71" value="" style="shape=ellipse;strokeColor=#d79b00;resizable=0;fillColor=#ffe6cc;html=1;fontSize=10;" parent="S5Bi1np_sZsKetwt9-qd-70" vertex="1">
                    <mxGeometry x="1" y="0.5" width="20" height="20" relative="1" as="geometry">
                        <mxPoint x="-25" y="-10" as="offset"/>
                    </mxGeometry>
                </mxCell>
                <mxCell id="S5Bi1np_sZsKetwt9-qd-72" value="Clone Config" style="strokeWidth=1;shadow=0;dashed=0;align=right;html=1;shape=mxgraph.mockup.containers.rrect;rSize=0;fontSize=10;strokeColor=#d79b00;whiteSpace=wrap;fillColor=#ffe6cc;" parent="S5Bi1np_sZsKetwt9-qd-69" vertex="1">
                    <mxGeometry x="0.25" y="1" width="89.75" height="25" relative="1" as="geometry">
                        <mxPoint x="-67" y="-33" as="offset"/>
                    </mxGeometry>
                </mxCell>
                <mxCell id="S5Bi1np_sZsKetwt9-qd-73" value="New Config" style="strokeWidth=1;shadow=0;dashed=0;align=center;html=1;shape=mxgraph.mockup.containers.rrect;rSize=0;fontSize=10;strokeColor=#d79b00;whiteSpace=wrap;fillColor=#ffe6cc;" parent="S5Bi1np_sZsKetwt9-qd-69" vertex="1">
                    <mxGeometry x="0.75" y="1" width="89.25" height="25" relative="1" as="geometry">
                        <mxPoint x="-117" y="-33" as="offset"/>
                    </mxGeometry>
                </mxCell>
                <mxCell id="S5Bi1np_sZsKetwt9-qd-75" value="" style="shape=image;html=1;verticalAlign=top;verticalLabelPosition=bottom;labelBackgroundColor=#ffffff;imageAspect=0;aspect=fixed;image=https://cdn2.iconfinder.com/data/icons/gnomeicontheme/24x24/stock/document/stock_preview-two-pages.png;fontSize=10;fillColor=#ffe6cc;strokeColor=#d79b00;" parent="S5Bi1np_sZsKetwt9-qd-69" vertex="1">
                    <mxGeometry x="15" y="86.42857142857144" width="15.42857142857143" height="15.42857142857143" as="geometry"/>
                </mxCell>
                <mxCell id="S5Bi1np_sZsKetwt9-qd-78" value="Show Prod" style="strokeWidth=1;shadow=0;dashed=0;align=center;html=1;shape=mxgraph.mockup.containers.rrect;rSize=0;fontSize=10;strokeColor=#d79b00;whiteSpace=wrap;fillColor=#ffe6cc;" parent="S5Bi1np_sZsKetwt9-qd-16" vertex="1">
                    <mxGeometry x="355" y="217" width="89.25" height="25" as="geometry"/>
                </mxCell>
                <mxCell id="S5Bi1np_sZsKetwt9-qd-20" value="" style="html=1;shadow=0;dashed=0;shape=mxgraph.bootstrap.rrect;rSize=5;strokeColor=#DFDFDF;html=1;whiteSpace=wrap;fillColor=#FFFFFF;fontColor=#000000;" parent="S5Bi1np_sZsKetwt9-qd-6" vertex="1">
                    <mxGeometry x="740" y="50" width="110" height="450" as="geometry"/>
                </mxCell>
                <mxCell id="S5Bi1np_sZsKetwt9-qd-21" value="Cras justo odio" style="strokeColor=inherit;fillColor=inherit;gradientColor=inherit;fontColor=inherit;html=1;shadow=0;dashed=0;shape=mxgraph.bootstrap.topButton;rSize=5;perimeter=none;whiteSpace=wrap;resizeWidth=1;align=left;spacing=10;" parent="S5Bi1np_sZsKetwt9-qd-20" vertex="1">
                    <mxGeometry width="110.00000000000001" height="30" relative="1" as="geometry"/>
                </mxCell>
                <mxCell id="S5Bi1np_sZsKetwt9-qd-22" value="Dapibus ac facilisis in" style="strokeColor=inherit;fillColor=inherit;gradientColor=inherit;fontColor=inherit;html=1;shadow=0;dashed=0;perimeter=none;whiteSpace=wrap;resizeWidth=1;align=left;spacing=10;" parent="S5Bi1np_sZsKetwt9-qd-20" vertex="1">
                    <mxGeometry width="110.00000000000001" height="30" relative="1" as="geometry">
                        <mxPoint y="30" as="offset"/>
                    </mxGeometry>
                </mxCell>
                <mxCell id="S5Bi1np_sZsKetwt9-qd-23" value="Morbi leo risus" style="strokeColor=inherit;fillColor=inherit;gradientColor=inherit;fontColor=inherit;html=1;shadow=0;dashed=0;perimeter=none;whiteSpace=wrap;resizeWidth=1;align=left;spacing=10;" parent="S5Bi1np_sZsKetwt9-qd-20" vertex="1">
                    <mxGeometry width="110.00000000000001" height="30" relative="1" as="geometry">
                        <mxPoint y="60" as="offset"/>
                    </mxGeometry>
                </mxCell>
                <mxCell id="S5Bi1np_sZsKetwt9-qd-24" value="Porta ac consectetur ac" style="strokeColor=inherit;fillColor=inherit;gradientColor=inherit;fontColor=inherit;html=1;shadow=0;dashed=0;perimeter=none;whiteSpace=wrap;resizeWidth=1;align=left;spacing=10;" parent="S5Bi1np_sZsKetwt9-qd-20" vertex="1">
                    <mxGeometry width="110.00000000000001" height="30" relative="1" as="geometry">
                        <mxPoint y="90" as="offset"/>
                    </mxGeometry>
                </mxCell>
                <mxCell id="S5Bi1np_sZsKetwt9-qd-25" value="Vestibulum at eros" style="strokeColor=inherit;fillColor=inherit;gradientColor=inherit;fontColor=inherit;html=1;shadow=0;dashed=0;shape=mxgraph.bootstrap.bottomButton;rSize=5;perimeter=none;whiteSpace=wrap;resizeWidth=1;resizeHeight=0;align=left;spacing=10;" parent="S5Bi1np_sZsKetwt9-qd-20" vertex="1">
                    <mxGeometry y="1" width="110.00000000000001" height="30" relative="1" as="geometry">
                        <mxPoint y="-30" as="offset"/>
                    </mxGeometry>
                </mxCell>
                <mxCell id="S5Bi1np_sZsKetwt9-qd-33" value="&lt;font style=&quot;font-size: 11px;&quot;&gt;Parking Area&lt;/font&gt;" style="html=1;shadow=0;dashed=0;shape=mxgraph.bootstrap.rrect;rSize=5;fillColor=#ffffff;strokeColor=#CED4DA;align=left;spacing=15;fontSize=14;fontColor=#6C767D;" parent="S5Bi1np_sZsKetwt9-qd-6" vertex="1">
                    <mxGeometry x="10" y="40" width="100" height="20" as="geometry"/>
                </mxCell>
                <mxCell id="S5Bi1np_sZsKetwt9-qd-34" value="" style="shape=triangle;direction=south;fillColor=#343A40;strokeColor=none;perimeter=none;" parent="S5Bi1np_sZsKetwt9-qd-33" vertex="1">
                    <mxGeometry x="1" y="0.5" width="7" height="3" relative="1" as="geometry">
                        <mxPoint x="-17" y="1" as="offset"/>
                    </mxGeometry>
                </mxCell>
                <mxCell id="S5Bi1np_sZsKetwt9-qd-35" value="" style="shape=triangle;direction=north;fillColor=#343A40;strokeColor=none;perimeter=none;" parent="S5Bi1np_sZsKetwt9-qd-33" vertex="1">
                    <mxGeometry x="1" y="0.5" width="7" height="3" relative="1" as="geometry">
                        <mxPoint x="-17" y="-4" as="offset"/>
                    </mxGeometry>
                </mxCell>
                <mxCell id="S5Bi1np_sZsKetwt9-qd-37" value="&lt;font style=&quot;font-size: 11px;&quot;&gt;Test Config&lt;/font&gt;" style="html=1;shadow=0;dashed=0;shape=mxgraph.bootstrap.rrect;rSize=5;fillColor=#ffffff;strokeColor=#CED4DA;align=left;spacing=15;fontSize=14;fontColor=#6C767D;" parent="S5Bi1np_sZsKetwt9-qd-6" vertex="1">
                    <mxGeometry x="10" y="70" width="100" height="20" as="geometry"/>
                </mxCell>
                <mxCell id="S5Bi1np_sZsKetwt9-qd-38" value="" style="shape=triangle;direction=south;fillColor=#343A40;strokeColor=none;perimeter=none;" parent="S5Bi1np_sZsKetwt9-qd-37" vertex="1">
                    <mxGeometry x="1" y="0.5" width="7" height="3" relative="1" as="geometry">
                        <mxPoint x="-17" y="1" as="offset"/>
                    </mxGeometry>
                </mxCell>
                <mxCell id="S5Bi1np_sZsKetwt9-qd-39" value="" style="shape=triangle;direction=north;fillColor=#343A40;strokeColor=none;perimeter=none;" parent="S5Bi1np_sZsKetwt9-qd-37" vertex="1">
                    <mxGeometry x="1" y="0.5" width="7" height="3" relative="1" as="geometry">
                        <mxPoint x="-17" y="-4" as="offset"/>
                    </mxGeometry>
                </mxCell>
                <mxCell id="S5Bi1np_sZsKetwt9-qd-47" value="&lt;font style=&quot;font-size: 10px;&quot;&gt;Set to prod&lt;/font&gt;" style="html=1;shadow=0;dashed=0;shape=mxgraph.bootstrap.checkbox2;labelPosition=right;verticalLabelPosition=middle;align=left;verticalAlign=middle;gradientColor=#DEDEDE;fillColor=#EDEDED;strokeColor=#A6A6A6;checked=0;spacing=5;checkedFill=#0085FC;checkedStroke=#ffffff;" parent="S5Bi1np_sZsKetwt9-qd-6" vertex="1">
                    <mxGeometry x="10" y="110" width="10" height="10" as="geometry"/>
                </mxCell>
                <mxCell id="S5Bi1np_sZsKetwt9-qd-48" value="&lt;font style=&quot;font-size: 11px;&quot;&gt;Submit&lt;/font&gt;" style="html=1;shadow=0;dashed=0;shape=mxgraph.bootstrap.rrect;rSize=5;fillColor=#0085FC;strokeColor=none;align=center;spacing=15;fontSize=14;fontColor=#ffffff;sketch=0;" parent="S5Bi1np_sZsKetwt9-qd-6" vertex="1">
                    <mxGeometry x="10" y="130" width="50" height="20" as="geometry"/>
                </mxCell>
                <mxCell id="S5Bi1np_sZsKetwt9-qd-76" value="" style="strokeWidth=1;shadow=0;dashed=0;align=center;html=1;shape=mxgraph.mockup.buttons.onOffButton;strokeColor=#82b366;buttonState=on;fillColor2=#008cff;fontSize=17;mainText=;spacingRight=40;fontStyle=1;whiteSpace=wrap;fillColor=none;" parent="S5Bi1np_sZsKetwt9-qd-6" vertex="1">
                    <mxGeometry x="46" y="5" width="60" height="20" as="geometry"/>
                </mxCell>
                <mxCell id="S5Bi1np_sZsKetwt9-qd-77" value="TEST" style="text;html=1;strokeColor=none;fillColor=none;align=center;verticalAlign=middle;whiteSpace=wrap;rounded=0;" parent="S5Bi1np_sZsKetwt9-qd-6" vertex="1">
                    <mxGeometry x="100" width="60" height="30" as="geometry"/>
                </mxCell>
                <mxCell id="JCPMznIbHvo1gAMHecG_-2" value="*" style="html=1;shadow=0;dashed=0;shape=mxgraph.bootstrap.rrect;rSize=5;fillColor=#0085FC;strokeColor=none;align=center;spacing=15;fontSize=14;fontColor=#ffffff;sketch=0;" parent="S5Bi1np_sZsKetwt9-qd-6" vertex="1">
                    <mxGeometry x="118" y="40" width="20" height="20" as="geometry"/>
                </mxCell>
                <mxCell id="JCPMznIbHvo1gAMHecG_-1" value="*" style="html=1;shadow=0;dashed=0;shape=mxgraph.bootstrap.rrect;rSize=5;fillColor=#0085FC;strokeColor=none;align=center;spacing=15;fontSize=14;fontColor=#ffffff;sketch=0;" parent="S5Bi1np_sZsKetwt9-qd-6" vertex="1">
                    <mxGeometry x="120" y="70" width="20" height="20" as="geometry"/>
                </mxCell>
            </root>
        </mxGraphModel>
    </diagram>
    <diagram name="Kopie von Seite-1" id="bbZuXRystfU3WEpSVQUZ">
        <mxGraphModel dx="1482" dy="676" grid="1" gridSize="10" guides="1" tooltips="1" connect="1" arrows="1" fold="1" page="1" pageScale="1" pageWidth="850" pageHeight="1100" math="0" shadow="0">
            <root>
                <mxCell id="Rc9lnGTdnskDCrMUXv3a-0"/>
                <mxCell id="Rc9lnGTdnskDCrMUXv3a-1" style="locked=1;" parent="Rc9lnGTdnskDCrMUXv3a-0"/>
                <mxCell id="Rc9lnGTdnskDCrMUXv3a-2" value="" style="rounded=0;whiteSpace=wrap;html=1;" parent="Rc9lnGTdnskDCrMUXv3a-1" vertex="1">
                    <mxGeometry width="850" height="500" as="geometry"/>
                </mxCell>
                <mxCell id="Rc9lnGTdnskDCrMUXv3a-3" value="Unbenannte Ebene" style="locked=1;" parent="Rc9lnGTdnskDCrMUXv3a-0"/>
                <mxCell id="Rc9lnGTdnskDCrMUXv3a-4" value="SideMenus" parent="Rc9lnGTdnskDCrMUXv3a-0"/>
                <mxCell id="Rc9lnGTdnskDCrMUXv3a-5" value="" style="rounded=0;whiteSpace=wrap;html=1;fillColor=#f8cecc;strokeColor=#b85450;" parent="Rc9lnGTdnskDCrMUXv3a-4" vertex="1">
                    <mxGeometry width="850" height="30" as="geometry"/>
                </mxCell>
                <mxCell id="Rc9lnGTdnskDCrMUXv3a-6" value="" style="shape=image;html=1;verticalAlign=top;verticalLabelPosition=bottom;labelBackgroundColor=#ffffff;imageAspect=0;aspect=fixed;image=https://cdn4.iconfinder.com/data/icons/evil-icons-user-interface/64/menu-128.png" parent="Rc9lnGTdnskDCrMUXv3a-4" vertex="1">
                    <mxGeometry x="1" width="30" height="30" as="geometry"/>
                </mxCell>
                <mxCell id="Rc9lnGTdnskDCrMUXv3a-7" value="" style="html=1;shadow=0;dashed=0;shape=mxgraph.bootstrap.rrect;rSize=5;strokeColor=#DFDFDF;html=1;whiteSpace=wrap;fillColor=#FFFFFF;fontColor=#000000;" parent="Rc9lnGTdnskDCrMUXv3a-4" vertex="1">
                    <mxGeometry x="150" y="30" width="700" height="470" as="geometry"/>
                </mxCell>
                <mxCell id="Rc9lnGTdnskDCrMUXv3a-8" value="" style="html=1;shadow=0;dashed=0;shape=mxgraph.bootstrap.topButton;strokeColor=inherit;fillColor=#F7F7F7;rSize=5;perimeter=none;whiteSpace=wrap;resizeWidth=1;align=left;spacing=20;fontSize=14;" parent="Rc9lnGTdnskDCrMUXv3a-7" vertex="1">
                    <mxGeometry width="700" height="20" relative="1" as="geometry"/>
                </mxCell>
                <mxCell id="Rc9lnGTdnskDCrMUXv3a-9" value="Lorem ipsum dolor sit amet, consectetur adipiscing elit. Integer posuere erat a ante.&lt;font style=&quot;font-size: 14px&quot; color=&quot;#999999&quot;&gt;&lt;br&gt;&lt;br&gt;- &lt;b&gt;Someone famous&lt;/b&gt; in &lt;i&gt;Source Title&lt;/i&gt;&lt;/font&gt;" style="perimeter=none;html=1;whiteSpace=wrap;fillColor=none;strokeColor=none;resizeWidth=1;verticalAlign=top;align=left;spacing=20;spacingTop=-10;fontSize=14;" parent="Rc9lnGTdnskDCrMUXv3a-7" vertex="1">
                    <mxGeometry width="700" height="80" relative="1" as="geometry">
                        <mxPoint y="40" as="offset"/>
                    </mxGeometry>
                </mxCell>
                <mxCell id="Rc9lnGTdnskDCrMUXv3a-10" value="" style="html=1;shadow=0;dashed=0;shape=mxgraph.bootstrap.rrect;rSize=5;strokeColor=#FFFFFF;html=1;whiteSpace=wrap;fillColor=#eeeeee;sketch=0;" parent="Rc9lnGTdnskDCrMUXv3a-7" vertex="1">
                    <mxGeometry y="20" width="30" height="450" as="geometry"/>
                </mxCell>
                <mxCell id="Rc9lnGTdnskDCrMUXv3a-11" value="1" style="strokeColor=inherit;fillColor=inherit;gradientColor=inherit;fontColor=inherit;html=1;shadow=0;dashed=0;shape=mxgraph.bootstrap.topButton;rSize=5;perimeter=none;whiteSpace=wrap;resizeWidth=1;sketch=0;" parent="Rc9lnGTdnskDCrMUXv3a-10" vertex="1">
                    <mxGeometry width="30" height="30" relative="1" as="geometry"/>
                </mxCell>
                <mxCell id="Rc9lnGTdnskDCrMUXv3a-12" value="2" style="strokeColor=inherit;fillColor=inherit;gradientColor=inherit;fontColor=inherit;html=1;shadow=0;dashed=0;perimeter=none;whiteSpace=wrap;resizeWidth=1;sketch=0;" parent="Rc9lnGTdnskDCrMUXv3a-10" vertex="1">
                    <mxGeometry width="30" height="30" relative="1" as="geometry">
                        <mxPoint y="30" as="offset"/>
                    </mxGeometry>
                </mxCell>
                <mxCell id="Rc9lnGTdnskDCrMUXv3a-13" value="3" style="strokeColor=inherit;fillColor=inherit;gradientColor=inherit;fontColor=inherit;html=1;shadow=0;dashed=0;perimeter=none;whiteSpace=wrap;resizeWidth=1;sketch=0;" parent="Rc9lnGTdnskDCrMUXv3a-10" vertex="1">
                    <mxGeometry width="30" height="30" relative="1" as="geometry">
                        <mxPoint y="60" as="offset"/>
                    </mxGeometry>
                </mxCell>
                <mxCell id="Rc9lnGTdnskDCrMUXv3a-14" value="4" style="strokeColor=inherit;fillColor=inherit;gradientColor=inherit;fontColor=inherit;html=1;shadow=0;dashed=0;perimeter=none;whiteSpace=wrap;resizeWidth=1;sketch=0;" parent="Rc9lnGTdnskDCrMUXv3a-10" vertex="1">
                    <mxGeometry width="30" height="30" relative="1" as="geometry">
                        <mxPoint y="90" as="offset"/>
                    </mxGeometry>
                </mxCell>
                <mxCell id="Rc9lnGTdnskDCrMUXv3a-15" value="5" style="strokeColor=inherit;fillColor=inherit;gradientColor=inherit;fontColor=inherit;html=1;shadow=0;dashed=0;perimeter=none;whiteSpace=wrap;resizeWidth=1;sketch=0;" parent="Rc9lnGTdnskDCrMUXv3a-10" vertex="1">
                    <mxGeometry width="30" height="30" relative="1" as="geometry">
                        <mxPoint y="120" as="offset"/>
                    </mxGeometry>
                </mxCell>
                <mxCell id="Rc9lnGTdnskDCrMUXv3a-16" value="" style="strokeColor=inherit;fillColor=inherit;gradientColor=inherit;fontColor=inherit;html=1;shadow=0;dashed=0;shape=mxgraph.bootstrap.bottomButton;rSize=5;perimeter=none;whiteSpace=wrap;resizeWidth=1;resizeHeight=0;sketch=0;" parent="Rc9lnGTdnskDCrMUXv3a-10" vertex="1">
                    <mxGeometry y="1" width="30" height="30" relative="1" as="geometry">
                        <mxPoint y="-30" as="offset"/>
                    </mxGeometry>
                </mxCell>
                <mxCell id="Rc9lnGTdnskDCrMUXv3a-17" value="To create a new Prod Config, first create Test Configuration and set it to prod if you finished your work." style="strokeWidth=1;shadow=0;dashed=0;align=center;html=1;shape=mxgraph.mockup.containers.rrect;rSize=0;strokeColor=#d79b00;fontSize=10;verticalAlign=top;whiteSpace=wrap;fillColor=#ffe6cc;spacingTop=32;" parent="Rc9lnGTdnskDCrMUXv3a-7" vertex="1">
                    <mxGeometry x="140" y="140" width="310" height="110" as="geometry"/>
                </mxCell>
                <mxCell id="Rc9lnGTdnskDCrMUXv3a-18" value="New Test Config" style="strokeWidth=1;shadow=0;dashed=0;align=center;html=1;shape=mxgraph.mockup.containers.rrect;rSize=0;fontSize=10;strokeColor=#d79b00;align=left;spacingLeft=8;fillColor=#ffe6cc;resizeWidth=1;whiteSpace=wrap;" parent="Rc9lnGTdnskDCrMUXv3a-17" vertex="1">
                    <mxGeometry width="310" height="30" relative="1" as="geometry">
                        <mxPoint as="offset"/>
                    </mxGeometry>
                </mxCell>
                <mxCell id="Rc9lnGTdnskDCrMUXv3a-19" value="" style="shape=ellipse;strokeColor=#d79b00;resizable=0;fillColor=#ffe6cc;html=1;fontSize=10;" parent="Rc9lnGTdnskDCrMUXv3a-18" vertex="1">
                    <mxGeometry x="1" y="0.5" width="20" height="20" relative="1" as="geometry">
                        <mxPoint x="-25" y="-10" as="offset"/>
                    </mxGeometry>
                </mxCell>
                <mxCell id="Rc9lnGTdnskDCrMUXv3a-20" value="Clone Config" style="strokeWidth=1;shadow=0;dashed=0;align=right;html=1;shape=mxgraph.mockup.containers.rrect;rSize=0;fontSize=10;strokeColor=#d79b00;whiteSpace=wrap;fillColor=#ffe6cc;" parent="Rc9lnGTdnskDCrMUXv3a-17" vertex="1">
                    <mxGeometry x="0.25" y="1" width="89.75" height="25" relative="1" as="geometry">
                        <mxPoint x="-67" y="-33" as="offset"/>
                    </mxGeometry>
                </mxCell>
                <mxCell id="Rc9lnGTdnskDCrMUXv3a-21" value="New Config" style="strokeWidth=1;shadow=0;dashed=0;align=center;html=1;shape=mxgraph.mockup.containers.rrect;rSize=0;fontSize=10;strokeColor=#d79b00;whiteSpace=wrap;fillColor=#ffe6cc;" parent="Rc9lnGTdnskDCrMUXv3a-17" vertex="1">
                    <mxGeometry x="0.75" y="1" width="89.25" height="25" relative="1" as="geometry">
                        <mxPoint x="-117" y="-33" as="offset"/>
                    </mxGeometry>
                </mxCell>
                <mxCell id="Rc9lnGTdnskDCrMUXv3a-22" value="" style="shape=image;html=1;verticalAlign=top;verticalLabelPosition=bottom;labelBackgroundColor=#ffffff;imageAspect=0;aspect=fixed;image=https://cdn2.iconfinder.com/data/icons/gnomeicontheme/24x24/stock/document/stock_preview-two-pages.png;fontSize=10;fillColor=#ffe6cc;strokeColor=#d79b00;" parent="Rc9lnGTdnskDCrMUXv3a-17" vertex="1">
                    <mxGeometry x="15" y="86.42857142857144" width="15.42857142857143" height="15.42857142857143" as="geometry"/>
                </mxCell>
                <mxCell id="Rc9lnGTdnskDCrMUXv3a-23" value="Cancel" style="strokeWidth=1;shadow=0;dashed=0;align=center;html=1;shape=mxgraph.mockup.containers.rrect;rSize=0;fontSize=10;strokeColor=#d79b00;whiteSpace=wrap;fillColor=#ffe6cc;" parent="Rc9lnGTdnskDCrMUXv3a-7" vertex="1">
                    <mxGeometry x="355" y="217" width="89.25" height="25" as="geometry"/>
                </mxCell>
                <mxCell id="Rc9lnGTdnskDCrMUXv3a-24" value="" style="html=1;shadow=0;dashed=0;shape=mxgraph.bootstrap.rrect;rSize=5;strokeColor=#DFDFDF;html=1;whiteSpace=wrap;fillColor=#FFFFFF;fontColor=#000000;" parent="Rc9lnGTdnskDCrMUXv3a-4" vertex="1">
                    <mxGeometry x="740" y="50" width="110" height="450" as="geometry"/>
                </mxCell>
                <mxCell id="Rc9lnGTdnskDCrMUXv3a-25" value="Cras justo odio" style="strokeColor=inherit;fillColor=inherit;gradientColor=inherit;fontColor=inherit;html=1;shadow=0;dashed=0;shape=mxgraph.bootstrap.topButton;rSize=5;perimeter=none;whiteSpace=wrap;resizeWidth=1;align=left;spacing=10;" parent="Rc9lnGTdnskDCrMUXv3a-24" vertex="1">
                    <mxGeometry width="110.00000000000001" height="30" relative="1" as="geometry"/>
                </mxCell>
                <mxCell id="Rc9lnGTdnskDCrMUXv3a-26" value="Dapibus ac facilisis in" style="strokeColor=inherit;fillColor=inherit;gradientColor=inherit;fontColor=inherit;html=1;shadow=0;dashed=0;perimeter=none;whiteSpace=wrap;resizeWidth=1;align=left;spacing=10;" parent="Rc9lnGTdnskDCrMUXv3a-24" vertex="1">
                    <mxGeometry width="110.00000000000001" height="30" relative="1" as="geometry">
                        <mxPoint y="30" as="offset"/>
                    </mxGeometry>
                </mxCell>
                <mxCell id="Rc9lnGTdnskDCrMUXv3a-27" value="Morbi leo risus" style="strokeColor=inherit;fillColor=inherit;gradientColor=inherit;fontColor=inherit;html=1;shadow=0;dashed=0;perimeter=none;whiteSpace=wrap;resizeWidth=1;align=left;spacing=10;" parent="Rc9lnGTdnskDCrMUXv3a-24" vertex="1">
                    <mxGeometry width="110.00000000000001" height="30" relative="1" as="geometry">
                        <mxPoint y="60" as="offset"/>
                    </mxGeometry>
                </mxCell>
                <mxCell id="Rc9lnGTdnskDCrMUXv3a-28" value="Porta ac consectetur ac" style="strokeColor=inherit;fillColor=inherit;gradientColor=inherit;fontColor=inherit;html=1;shadow=0;dashed=0;perimeter=none;whiteSpace=wrap;resizeWidth=1;align=left;spacing=10;" parent="Rc9lnGTdnskDCrMUXv3a-24" vertex="1">
                    <mxGeometry width="110.00000000000001" height="30" relative="1" as="geometry">
                        <mxPoint y="90" as="offset"/>
                    </mxGeometry>
                </mxCell>
                <mxCell id="Rc9lnGTdnskDCrMUXv3a-29" value="Vestibulum at eros" style="strokeColor=inherit;fillColor=inherit;gradientColor=inherit;fontColor=inherit;html=1;shadow=0;dashed=0;shape=mxgraph.bootstrap.bottomButton;rSize=5;perimeter=none;whiteSpace=wrap;resizeWidth=1;resizeHeight=0;align=left;spacing=10;" parent="Rc9lnGTdnskDCrMUXv3a-24" vertex="1">
                    <mxGeometry y="1" width="110.00000000000001" height="30" relative="1" as="geometry">
                        <mxPoint y="-30" as="offset"/>
                    </mxGeometry>
                </mxCell>
                <mxCell id="Rc9lnGTdnskDCrMUXv3a-30" value="&lt;font style=&quot;font-size: 11px;&quot;&gt;Parking Area&lt;/font&gt;" style="html=1;shadow=0;dashed=0;shape=mxgraph.bootstrap.rrect;rSize=5;fillColor=#ffffff;strokeColor=#CED4DA;align=left;spacing=15;fontSize=14;fontColor=#6C767D;" parent="Rc9lnGTdnskDCrMUXv3a-4" vertex="1">
                    <mxGeometry x="10" y="40" width="100" height="20" as="geometry"/>
                </mxCell>
                <mxCell id="Rc9lnGTdnskDCrMUXv3a-31" value="" style="shape=triangle;direction=south;fillColor=#343A40;strokeColor=none;perimeter=none;" parent="Rc9lnGTdnskDCrMUXv3a-30" vertex="1">
                    <mxGeometry x="1" y="0.5" width="7" height="3" relative="1" as="geometry">
                        <mxPoint x="-17" y="1" as="offset"/>
                    </mxGeometry>
                </mxCell>
                <mxCell id="Rc9lnGTdnskDCrMUXv3a-32" value="" style="shape=triangle;direction=north;fillColor=#343A40;strokeColor=none;perimeter=none;" parent="Rc9lnGTdnskDCrMUXv3a-30" vertex="1">
                    <mxGeometry x="1" y="0.5" width="7" height="3" relative="1" as="geometry">
                        <mxPoint x="-17" y="-4" as="offset"/>
                    </mxGeometry>
                </mxCell>
                <mxCell id="Rc9lnGTdnskDCrMUXv3a-33" value="&lt;font style=&quot;font-size: 11px;&quot;&gt;Prod Config&lt;/font&gt;" style="html=1;shadow=0;dashed=0;shape=mxgraph.bootstrap.rrect;rSize=5;fillColor=#ffffff;strokeColor=#CED4DA;align=left;spacing=15;fontSize=14;fontColor=#6C767D;" parent="Rc9lnGTdnskDCrMUXv3a-4" vertex="1">
                    <mxGeometry x="10" y="70" width="100" height="20" as="geometry"/>
                </mxCell>
                <mxCell id="Rc9lnGTdnskDCrMUXv3a-34" value="" style="shape=triangle;direction=south;fillColor=#343A40;strokeColor=none;perimeter=none;" parent="Rc9lnGTdnskDCrMUXv3a-33" vertex="1">
                    <mxGeometry x="1" y="0.5" width="7" height="3" relative="1" as="geometry">
                        <mxPoint x="-17" y="1" as="offset"/>
                    </mxGeometry>
                </mxCell>
                <mxCell id="Rc9lnGTdnskDCrMUXv3a-35" value="" style="shape=triangle;direction=north;fillColor=#343A40;strokeColor=none;perimeter=none;" parent="Rc9lnGTdnskDCrMUXv3a-33" vertex="1">
                    <mxGeometry x="1" y="0.5" width="7" height="3" relative="1" as="geometry">
                        <mxPoint x="-17" y="-4" as="offset"/>
                    </mxGeometry>
                </mxCell>
                <mxCell id="Rc9lnGTdnskDCrMUXv3a-37" value="&lt;span style=&quot;font-size: 11px;&quot;&gt;Edit&lt;/span&gt;" style="html=1;shadow=0;dashed=0;shape=mxgraph.bootstrap.rrect;rSize=5;fillColor=#0085FC;strokeColor=none;align=center;spacing=15;fontSize=14;fontColor=#ffffff;sketch=0;" parent="Rc9lnGTdnskDCrMUXv3a-4" vertex="1">
                    <mxGeometry x="10" y="100" width="50" height="20" as="geometry"/>
                </mxCell>
                <mxCell id="Rc9lnGTdnskDCrMUXv3a-38" value="" style="strokeWidth=1;shadow=0;dashed=0;align=center;html=1;shape=mxgraph.mockup.buttons.onOffButton;strokeColor=#82b366;buttonState=on;fillColor2=#008cff;fontSize=17;mainText=;spacingRight=40;fontStyle=1;whiteSpace=wrap;fillColor=none;rotation=-180;" parent="Rc9lnGTdnskDCrMUXv3a-4" vertex="1">
                    <mxGeometry x="46" y="5" width="60" height="20" as="geometry"/>
                </mxCell>
                <mxCell id="Rc9lnGTdnskDCrMUXv3a-39" value="Prod" style="text;html=1;strokeColor=none;fillColor=none;align=center;verticalAlign=middle;whiteSpace=wrap;rounded=0;" parent="Rc9lnGTdnskDCrMUXv3a-4" vertex="1">
                    <mxGeometry x="100" width="60" height="30" as="geometry"/>
                </mxCell>
            </root>
        </mxGraphModel>
    </diagram>
    <diagram id="93ErCJc39MLFswSEh2X4" name="Seite-3">
        <mxGraphModel dx="1482" dy="676" grid="1" gridSize="10" guides="1" tooltips="1" connect="1" arrows="1" fold="1" page="1" pageScale="1" pageWidth="850" pageHeight="1100" math="0" shadow="0">
            <root>
                <mxCell id="0"/>
                <mxCell id="jNIq53Daw76C_qiVKkg7-33" value="Unbenannte Ebene" parent="0"/>
                <mxCell id="jNIq53Daw76C_qiVKkg7-45" value="" style="html=1;shadow=0;dashed=0;shape=mxgraph.bootstrap.rrect;rSize=5;strokeColor=#666666;html=1;whiteSpace=wrap;fillColor=#f5f5f5;fontColor=#333333;" parent="jNIq53Daw76C_qiVKkg7-33" vertex="1">
                    <mxGeometry x="10" y="20" width="710" height="310" as="geometry"/>
                </mxCell>
                <mxCell id="jNIq53Daw76C_qiVKkg7-46" value="New Parking Area" style="html=1;shadow=0;dashed=0;shape=mxgraph.bootstrap.topButton;strokeColor=#82b366;fillColor=#d5e8d4;rSize=5;perimeter=none;whiteSpace=wrap;resizeWidth=1;align=left;spacing=20;fontSize=14;" parent="jNIq53Daw76C_qiVKkg7-45" vertex="1">
                    <mxGeometry width="709.9999999999999" height="40" relative="1" as="geometry"/>
                </mxCell>
                <mxCell id="1" style="" parent="0"/>
                <mxCell id="jNIq53Daw76C_qiVKkg7-48" value="Hühnerrudi" style="html=1;shadow=0;dashed=0;shape=mxgraph.bootstrap.rrect;rSize=5;fillColor=#ffffff;strokeColor=#CED4DA;align=left;spacing=15;fontSize=14;fontColor=#6C767D;" parent="1" vertex="1">
                    <mxGeometry x="25" y="100" width="260" height="40" as="geometry"/>
                </mxCell>
                <mxCell id="jNIq53Daw76C_qiVKkg7-49" value="Name" style="fillColor=none;strokeColor=none;align=left;fontSize=14;" parent="1" vertex="1">
                    <mxGeometry x="25" y="70" width="100" height="30" as="geometry"/>
                </mxCell>
                <mxCell id="jNIq53Daw76C_qiVKkg7-50" value="" style="html=1;shadow=0;dashed=0;shape=mxgraph.bootstrap.rrect;rSize=5;fillColor=#ffffff;strokeColor=#CED4DA;align=left;spacing=15;fontSize=14;fontColor=#6C767D;" parent="1" vertex="1">
                    <mxGeometry x="310" y="100" width="390" height="40" as="geometry"/>
                </mxCell>
                <mxCell id="jNIq53Daw76C_qiVKkg7-51" value="Images" style="fillColor=none;strokeColor=none;align=left;fontSize=14;" parent="1" vertex="1">
                    <mxGeometry x="25" y="160" width="150" height="40" as="geometry"/>
                </mxCell>
                <mxCell id="jNIq53Daw76C_qiVKkg7-52" value="Choose File" style="fillColor=#FEFEFE;strokeColor=#AAAAAA;fontSize=14;gradientColor=#F0F0F0;" parent="1" vertex="1">
                    <mxGeometry x="25" y="200" width="90" height="30" as="geometry"/>
                </mxCell>
                <mxCell id="jNIq53Daw76C_qiVKkg7-53" value="No file chosen" style="fillColor=none;strokeColor=none;align=left;fontSize=14;spacing=5;" parent="1" vertex="1">
                    <mxGeometry x="115" y="200" width="100" height="30" as="geometry"/>
                </mxCell>
                <mxCell id="jNIq53Daw76C_qiVKkg7-54" value="Submit form" style="html=1;shadow=0;dashed=0;shape=mxgraph.bootstrap.rrect;rSize=5;fillColor=#0085FC;strokeColor=none;align=center;spacing=15;fontSize=14;fontColor=#ffffff;" parent="1" vertex="1">
                    <mxGeometry x="25" y="250" width="120" height="40" as="geometry"/>
                </mxCell>
                <mxCell id="jNIq53Daw76C_qiVKkg7-55" value="Wolfsburg" style="fillColor=none;strokeColor=none;align=left;fontSize=14;" parent="1" vertex="1">
                    <mxGeometry x="310" y="70" width="100" height="30" as="geometry"/>
                </mxCell>
                <mxCell id="jNIq53Daw76C_qiVKkg7-56" value="" style="html=1;shadow=0;dashed=0;shape=mxgraph.bootstrap.rrect;rSize=5;strokeColor=#666666;html=1;whiteSpace=wrap;fillColor=#f5f5f5;fontColor=#333333;" parent="1" vertex="1">
                    <mxGeometry x="10" y="1030" width="450" height="290" as="geometry"/>
                </mxCell>
                <mxCell id="jNIq53Daw76C_qiVKkg7-57" value="New/Edit Parking Config" style="html=1;shadow=0;dashed=0;shape=mxgraph.bootstrap.topButton;strokeColor=#82b366;fillColor=#d5e8d4;rSize=5;perimeter=none;whiteSpace=wrap;resizeWidth=1;align=left;spacing=20;fontSize=14;" parent="jNIq53Daw76C_qiVKkg7-56" vertex="1">
                    <mxGeometry width="449.99999999999994" height="40" relative="1" as="geometry"/>
                </mxCell>
                <mxCell id="jNIq53Daw76C_qiVKkg7-58" value="Hühnerrudi-Test-Config" style="html=1;shadow=0;dashed=0;shape=mxgraph.bootstrap.rrect;rSize=5;fillColor=#ffffff;strokeColor=#CED4DA;align=left;spacing=15;fontSize=14;fontColor=#6C767D;" parent="1" vertex="1">
                    <mxGeometry x="25" y="1110" width="260" height="40" as="geometry"/>
                </mxCell>
                <mxCell id="jNIq53Daw76C_qiVKkg7-59" value="Name" style="fillColor=none;strokeColor=none;align=left;fontSize=14;" parent="1" vertex="1">
                    <mxGeometry x="25" y="1080" width="100" height="30" as="geometry"/>
                </mxCell>
                <mxCell id="jNIq53Daw76C_qiVKkg7-61" value="Change Images" style="fillColor=none;strokeColor=none;align=left;fontSize=14;" parent="1" vertex="1">
                    <mxGeometry x="25" y="1161" width="150" height="40" as="geometry"/>
                </mxCell>
                <mxCell id="jNIq53Daw76C_qiVKkg7-62" value="Choose File" style="fillColor=#FEFEFE;strokeColor=#AAAAAA;fontSize=14;gradientColor=#F0F0F0;" parent="1" vertex="1">
                    <mxGeometry x="25" y="1201" width="90" height="30" as="geometry"/>
                </mxCell>
                <mxCell id="jNIq53Daw76C_qiVKkg7-63" value="No file chosen" style="fillColor=none;strokeColor=none;align=left;fontSize=14;spacing=5;" parent="1" vertex="1">
                    <mxGeometry x="115" y="1201" width="100" height="30" as="geometry"/>
                </mxCell>
                <mxCell id="jNIq53Daw76C_qiVKkg7-64" value="Submit form" style="html=1;shadow=0;dashed=0;shape=mxgraph.bootstrap.rrect;rSize=5;fillColor=#0085FC;strokeColor=none;align=center;spacing=15;fontSize=14;fontColor=#ffffff;" parent="1" vertex="1">
                    <mxGeometry x="25" y="1260" width="120" height="40" as="geometry"/>
                </mxCell>
                <mxCell id="C1yOysI1VGjqj3qRhYMd-1" value="" style="html=1;shadow=0;dashed=0;shape=mxgraph.bootstrap.rrect;rSize=5;strokeColor=#666666;html=1;whiteSpace=wrap;fillColor=#f5f5f5;fontColor=#333333;" parent="1" vertex="1">
                    <mxGeometry x="10" y="690" width="710" height="310" as="geometry"/>
                </mxCell>
                <mxCell id="C1yOysI1VGjqj3qRhYMd-2" value="Edit Parking Area" style="html=1;shadow=0;dashed=0;shape=mxgraph.bootstrap.topButton;strokeColor=#82b366;fillColor=#d5e8d4;rSize=5;perimeter=none;whiteSpace=wrap;resizeWidth=1;align=left;spacing=20;fontSize=14;" parent="C1yOysI1VGjqj3qRhYMd-1" vertex="1">
                    <mxGeometry width="709.9999999999999" height="40" relative="1" as="geometry"/>
                </mxCell>
                <mxCell id="C1yOysI1VGjqj3qRhYMd-9" value="Submit form" style="html=1;shadow=0;dashed=0;shape=mxgraph.bootstrap.rrect;rSize=5;fillColor=#0085FC;strokeColor=none;align=center;spacing=15;fontSize=14;fontColor=#ffffff;" parent="C1yOysI1VGjqj3qRhYMd-1" vertex="1">
                    <mxGeometry x="20" y="260" width="120" height="40" as="geometry"/>
                </mxCell>
                <mxCell id="C1yOysI1VGjqj3qRhYMd-24" value="" style="strokeWidth=1;shadow=0;dashed=0;align=center;html=1;shape=mxgraph.mockup.containers.rrect;rSize=0;strokeColor=#666666;" parent="C1yOysI1VGjqj3qRhYMd-1" vertex="1">
                    <mxGeometry y="40" width="710" height="210" as="geometry"/>
                </mxCell>
                <mxCell id="C1yOysI1VGjqj3qRhYMd-25" value="Parking Area" style="strokeColor=inherit;fillColor=inherit;gradientColor=inherit;strokeWidth=1;shadow=0;dashed=0;align=center;html=1;shape=mxgraph.mockup.containers.rrect;rSize=0;fontSize=17;fontColor=#666666;fontStyle=1;resizeWidth=1;whiteSpace=wrap;" parent="C1yOysI1VGjqj3qRhYMd-24" vertex="1">
                    <mxGeometry width="710" height="26" relative="1" as="geometry"/>
                </mxCell>
                <mxCell id="C1yOysI1VGjqj3qRhYMd-27" value="Parking Config" style="strokeWidth=1;shadow=0;dashed=0;align=center;html=1;shape=mxgraph.mockup.containers.rrect;rSize=0;fontSize=17;fontColor=#ffffff;fontStyle=1;fillColor=#008cff;strokeColor=#008cff;resizeWidth=1;whiteSpace=wrap;" parent="C1yOysI1VGjqj3qRhYMd-24" vertex="1">
                    <mxGeometry width="710" height="26" relative="1" as="geometry">
                        <mxPoint y="26" as="offset"/>
                    </mxGeometry>
                </mxCell>
                <mxCell id="C1yOysI1VGjqj3qRhYMd-11" value="Hühnerrudi-Test-Config" style="html=1;shadow=0;dashed=0;shape=mxgraph.bootstrap.rrect;rSize=5;fillColor=#ffffff;strokeColor=#CED4DA;align=left;spacing=15;fontSize=14;fontColor=#6C767D;" parent="C1yOysI1VGjqj3qRhYMd-24" vertex="1">
                    <mxGeometry x="30" y="105" width="260" height="38.18181818181819" as="geometry"/>
                </mxCell>
                <mxCell id="C1yOysI1VGjqj3qRhYMd-12" value="Name" style="fillColor=none;strokeColor=none;align=left;fontSize=14;" parent="C1yOysI1VGjqj3qRhYMd-24" vertex="1">
                    <mxGeometry x="30" y="76.36363636363637" width="100" height="28.636363636363637" as="geometry"/>
                </mxCell>
                <mxCell id="C1yOysI1VGjqj3qRhYMd-6" value="Images" style="fillColor=none;strokeColor=none;align=left;fontSize=14;" parent="C1yOysI1VGjqj3qRhYMd-24" vertex="1">
                    <mxGeometry x="310" y="76.36363636363637" width="150" height="38.18181818181819" as="geometry"/>
                </mxCell>
                <mxCell id="C1yOysI1VGjqj3qRhYMd-7" value="Choose File" style="fillColor=#FEFEFE;strokeColor=#AAAAAA;fontSize=14;gradientColor=#F0F0F0;" parent="C1yOysI1VGjqj3qRhYMd-24" vertex="1">
                    <mxGeometry x="310" y="114.54545454545455" width="90" height="28.636363636363637" as="geometry"/>
                </mxCell>
                <mxCell id="C1yOysI1VGjqj3qRhYMd-8" value="No file chosen" style="fillColor=none;strokeColor=none;align=left;fontSize=14;spacing=5;" parent="C1yOysI1VGjqj3qRhYMd-24" vertex="1">
                    <mxGeometry x="400" y="114.54545454545455" width="100" height="28.636363636363637" as="geometry"/>
                </mxCell>
                <mxCell id="C1yOysI1VGjqj3qRhYMd-18" value="Unbenannte Ebene" parent="0"/>
                <mxCell id="C1yOysI1VGjqj3qRhYMd-29" value="" style="html=1;shadow=0;dashed=0;shape=mxgraph.bootstrap.rrect;rSize=5;strokeColor=#666666;html=1;whiteSpace=wrap;fillColor=#f5f5f5;fontColor=#333333;" parent="C1yOysI1VGjqj3qRhYMd-18" vertex="1">
                    <mxGeometry x="10" y="354" width="710" height="310" as="geometry"/>
                </mxCell>
                <mxCell id="C1yOysI1VGjqj3qRhYMd-30" value="Edit Parking Area" style="html=1;shadow=0;dashed=0;shape=mxgraph.bootstrap.topButton;strokeColor=#82b366;fillColor=#d5e8d4;rSize=5;perimeter=none;whiteSpace=wrap;resizeWidth=1;align=left;spacing=20;fontSize=14;" parent="C1yOysI1VGjqj3qRhYMd-29" vertex="1">
                    <mxGeometry width="709.9999999999999" height="40" relative="1" as="geometry">
                        <mxPoint as="offset"/>
                    </mxGeometry>
                </mxCell>
                <mxCell id="C1yOysI1VGjqj3qRhYMd-31" value="Submit form" style="html=1;shadow=0;dashed=0;shape=mxgraph.bootstrap.rrect;rSize=5;fillColor=#0085FC;strokeColor=none;align=center;spacing=15;fontSize=14;fontColor=#ffffff;" parent="C1yOysI1VGjqj3qRhYMd-29" vertex="1">
                    <mxGeometry x="20" y="260" width="120" height="40" as="geometry"/>
                </mxCell>
                <mxCell id="C1yOysI1VGjqj3qRhYMd-32" value="" style="strokeWidth=1;shadow=0;dashed=0;align=center;html=1;shape=mxgraph.mockup.containers.rrect;rSize=0;strokeColor=#666666;" parent="C1yOysI1VGjqj3qRhYMd-29" vertex="1">
                    <mxGeometry y="40" width="710" height="210" as="geometry"/>
                </mxCell>
                <mxCell id="C1yOysI1VGjqj3qRhYMd-33" value="Parking Config" style="strokeColor=inherit;fillColor=inherit;gradientColor=inherit;strokeWidth=1;shadow=0;dashed=0;align=center;html=1;shape=mxgraph.mockup.containers.rrect;rSize=0;fontSize=17;fontColor=#666666;fontStyle=1;resizeWidth=1;whiteSpace=wrap;" parent="C1yOysI1VGjqj3qRhYMd-32" vertex="1">
                    <mxGeometry width="710" height="26" relative="1" as="geometry">
                        <mxPoint y="184" as="offset"/>
                    </mxGeometry>
                </mxCell>
                <mxCell id="C1yOysI1VGjqj3qRhYMd-34" value="Parking Area" style="strokeWidth=1;shadow=0;dashed=0;align=center;html=1;shape=mxgraph.mockup.containers.rrect;rSize=0;fontSize=17;fontColor=#ffffff;fontStyle=1;fillColor=#008cff;strokeColor=#008cff;resizeWidth=1;whiteSpace=wrap;" parent="C1yOysI1VGjqj3qRhYMd-32" vertex="1">
                    <mxGeometry width="710" height="26" relative="1" as="geometry">
                        <mxPoint as="offset"/>
                    </mxGeometry>
                </mxCell>
                <mxCell id="C1yOysI1VGjqj3qRhYMd-3" value="Hühnerrudi" style="html=1;shadow=0;dashed=0;shape=mxgraph.bootstrap.rrect;rSize=5;fillColor=#ffffff;strokeColor=#CED4DA;align=left;spacing=15;fontSize=14;fontColor=#6C767D;" parent="C1yOysI1VGjqj3qRhYMd-32" vertex="1">
                    <mxGeometry x="17.5" y="85.9090909090909" width="260" height="38.18181818181819" as="geometry"/>
                </mxCell>
                <mxCell id="C1yOysI1VGjqj3qRhYMd-4" value="Name" style="fillColor=none;strokeColor=none;align=left;fontSize=14;" parent="C1yOysI1VGjqj3qRhYMd-32" vertex="1">
                    <mxGeometry x="17.5" y="57.27272727272727" width="100" height="28.636363636363637" as="geometry"/>
                </mxCell>
                <mxCell id="C1yOysI1VGjqj3qRhYMd-5" value="" style="html=1;shadow=0;dashed=0;shape=mxgraph.bootstrap.rrect;rSize=5;fillColor=#ffffff;strokeColor=#CED4DA;align=left;spacing=15;fontSize=14;fontColor=#6C767D;" parent="C1yOysI1VGjqj3qRhYMd-32" vertex="1">
                    <mxGeometry x="302.5" y="85.9090909090909" width="390" height="38.18181818181819" as="geometry"/>
                </mxCell>
                <mxCell id="C1yOysI1VGjqj3qRhYMd-10" value="Wolfsburg" style="fillColor=none;strokeColor=none;align=left;fontSize=14;" parent="C1yOysI1VGjqj3qRhYMd-32" vertex="1">
                    <mxGeometry x="302.5" y="57.27272727272727" width="100" height="28.636363636363637" as="geometry"/>
                </mxCell>
            </root>
        </mxGraphModel>
    </diagram>
    <diagram id="BOehYSy2QDpUZ2LD_WKC" name="Seite-4">
        <mxGraphModel dx="1482" dy="676" grid="1" gridSize="10" guides="1" tooltips="1" connect="1" arrows="1" fold="1" page="1" pageScale="1" pageWidth="850" pageHeight="1100" math="0" shadow="0">
            <root>
                <mxCell id="0"/>
                <mxCell id="1" parent="0"/>
                <mxCell id="m_lmyl3XK2EFK8Xl_-w0-1" value="" style="rounded=0;whiteSpace=wrap;html=1;" parent="1" vertex="1">
                    <mxGeometry width="860" height="410" as="geometry"/>
                </mxCell>
                <mxCell id="m_lmyl3XK2EFK8Xl_-w0-2" value="&lt;span style=&quot;font-size: 20px;&quot;&gt;&lt;b&gt;Hühnerrudi&lt;br&gt;&lt;/b&gt;&lt;/span&gt;&lt;br style=&quot;font-size: 14px&quot;&gt;Some quick example text to build on the card title and make up the bulk of the card's content." style="html=1;shadow=0;dashed=0;shape=mxgraph.bootstrap.rrect;rSize=5;strokeColor=#DFDFDF;html=1;whiteSpace=wrap;fillColor=#ffffff;fontColor=#000000;verticalAlign=bottom;align=left;spacing=20;spacingBottom=50;fontSize=14;" parent="1" vertex="1">
                    <mxGeometry x="70" y="20" width="250" height="350" as="geometry"/>
                </mxCell>
                <mxCell id="m_lmyl3XK2EFK8Xl_-w0-3" value="Image cap" style="html=1;shadow=0;dashed=0;shape=mxgraph.bootstrap.topButton;rSize=5;perimeter=none;whiteSpace=wrap;fillColor=#868E96;strokeColor=#DFDFDF;fontColor=#DEE2E6;resizeWidth=1;fontSize=18;" parent="m_lmyl3XK2EFK8Xl_-w0-2" vertex="1">
                    <mxGeometry width="250" height="180" relative="1" as="geometry"/>
                </mxCell>
                <mxCell id="m_lmyl3XK2EFK8Xl_-w0-4" value="Select" style="html=1;shadow=0;dashed=0;shape=mxgraph.bootstrap.rrect;rSize=5;perimeter=none;whiteSpace=wrap;fillColor=#0085FC;strokeColor=none;fontColor=#ffffff;resizeWidth=1;fontSize=14;" parent="m_lmyl3XK2EFK8Xl_-w0-2" vertex="1">
                    <mxGeometry y="1" width="120" height="40" relative="1" as="geometry">
                        <mxPoint x="20" y="-60" as="offset"/>
                    </mxGeometry>
                </mxCell>
                <mxCell id="m_lmyl3XK2EFK8Xl_-w0-5" value="&lt;span style=&quot;font-size: 20px;&quot;&gt;&lt;b&gt;Rewe Fallersleben&lt;br&gt;&lt;/b&gt;&lt;/span&gt;&lt;br style=&quot;font-size: 14px&quot;&gt;Some quick example text to build on the card title and make up the bulk of the card's content." style="html=1;shadow=0;dashed=0;shape=mxgraph.bootstrap.rrect;rSize=5;strokeColor=#DFDFDF;html=1;whiteSpace=wrap;fillColor=#ffffff;fontColor=#000000;verticalAlign=bottom;align=left;spacing=20;spacingBottom=50;fontSize=14;" parent="1" vertex="1">
                    <mxGeometry x="340" y="20" width="250" height="350" as="geometry"/>
                </mxCell>
                <mxCell id="m_lmyl3XK2EFK8Xl_-w0-6" value="Image cap" style="html=1;shadow=0;dashed=0;shape=mxgraph.bootstrap.topButton;rSize=5;perimeter=none;whiteSpace=wrap;fillColor=#868E96;strokeColor=#DFDFDF;fontColor=#DEE2E6;resizeWidth=1;fontSize=18;" parent="m_lmyl3XK2EFK8Xl_-w0-5" vertex="1">
                    <mxGeometry width="250" height="180" relative="1" as="geometry"/>
                </mxCell>
                <mxCell id="m_lmyl3XK2EFK8Xl_-w0-7" value="Select" style="html=1;shadow=0;dashed=0;shape=mxgraph.bootstrap.rrect;rSize=5;perimeter=none;whiteSpace=wrap;fillColor=#0085FC;strokeColor=none;fontColor=#ffffff;resizeWidth=1;fontSize=14;" parent="m_lmyl3XK2EFK8Xl_-w0-5" vertex="1">
                    <mxGeometry y="1" width="120" height="40" relative="1" as="geometry">
                        <mxPoint x="20" y="-60" as="offset"/>
                    </mxGeometry>
                </mxCell>
            </root>
        </mxGraphModel>
    </diagram>
</mxfile>